{
	"asset": {
		"generator": "Blocks 4.0.1RC0 SVR",
		"version": "1.1",
		"copyright": "Unknown"
	},
	"buffers": {
		"model": {
			"byteLength": 19752,
			"type": "arraybuffer",
			"uri": "model.bin"
		}
	},
	"accessors": {
		"accessor_position_m0-PolyGlass24_-19036": {
			"bufferView": "vec3BufferView",
			"byteOffset": 0,
			"byteStride": 12,
			"componentType": 5126,
			"count": 312,
			"max": [ 1.692871, -1.901656, 0.6213902 ],
			"min": [ 1.066785, -3.072251, 0.05362905 ],
			"type": "VEC3"
		 },
		"accessor_normal_m0-PolyGlass24_-19036": {
			"bufferView": "vec3BufferView",
			"byteOffset": 3744,
			"byteStride": 12,
			"componentType": 5126,
			"count": 312,
			"max": [ 0.9794056, 0.9974445, 0.9814104 ],
			"min": [ -0.9794056, -0.9974445, -0.9814104 ],
			"type": "VEC3"
		 },
		"accessor_color_m0-PolyGlass24_-19036": {
			"bufferView": "vec4BufferView",
			"byteOffset": 0,
			"byteStride": 16,
			"componentType": 5126,
			"count": 312,
			"max": [ 1, 1, 1, 1 ],
			"min": [ 1, 1, 1, 1 ],
			"type": "VEC4"
		 },
		"accessor_indices_0_m0-PolyGlass24_-19036": {
			"bufferView": "ushortBufferView",
			"byteOffset": 0,
			"byteStride": 0,
			"componentType": 5123,
			"count": 492,
			"max": [ 311 ],
			"min": [ 0 ],
			"type": "SCALAR"
		 },
		"accessor_position_m1-PolyPaper20_-19042": {
			"bufferView": "vec3BufferView",
			"byteOffset": 7488,
			"byteStride": 12,
			"componentType": 5126,
			"count": 144,
			"max": [ 1.631994, -1.431664, 0.6093961 ],
			"min": [ 1.081203, -3.044732, -0.0326545 ],
			"type": "VEC3"
		 },
		"accessor_normal_m1-PolyPaper20_-19042": {
			"bufferView": "vec3BufferView",
			"byteOffset": 9216,
			"byteStride": 12,
			"componentType": 5126,
			"count": 144,
			"max": [ 0.9869481, 0.9989289, 0.9879401 ],
			"min": [ -0.9869481, -0.9989289, -0.9879403 ],
			"type": "VEC3"
		 },
		"accessor_color_m1-PolyPaper20_-19042": {
			"bufferView": "vec4BufferView",
			"byteOffset": 4992,
			"byteStride": 16,
			"componentType": 5126,
			"count": 144,
			"max": [ 0.4745098, 0.6078432, 0.8980392, 1 ],
			"min": [ 0.01176471, 0.3333333, 0.282353, 1 ],
			"type": "VEC4"
		 },
		"accessor_indices_0_m1-PolyPaper20_-19042": {
			"bufferView": "ushortBufferView",
			"byteOffset": 984,
			"byteStride": 0,
			"componentType": 5123,
			"count": 264,
			"max": [ 143 ],
			"min": [ 0 ],
			"type": "SCALAR"
		 }
	},
	"bufferViews": {
		"ushortBufferView": {
			"buffer": "model",
			"byteLength": 1512,
			"byteOffset": 0,
			"target": 34963
		},
		"vec3BufferView": {
			"buffer": "model",
			"byteLength": 10944,
			"byteOffset": 1512,
			"target": 34962
		},
		"vec4BufferView": {
			"buffer": "model",
			"byteLength": 7296,
			"byteOffset": 12456,
			"target": 34962
		}
	},
	"meshes": {
		"mesh_m0-PolyGlass24_-19036": {
			"name": "mesh_m0-PolyGlass24_-19036",
			"primitives": [
				{
					"attributes": {
						"POSITION": "accessor_position_m0-PolyGlass24_-19036",
						"NORMAL": "accessor_normal_m0-PolyGlass24_-19036",
						"COLOR": "accessor_color_m0-PolyGlass24_-19036"
					},
					"indices": "accessor_indices_0_m0-PolyGlass24_-19036",
					"material": "material_mat24",
					"mode": 4
				}
			]
		},
		"mesh_m1-PolyPaper20_-19042": {
			"name": "mesh_m1-PolyPaper20_-19042",
			"primitives": [
				{
					"attributes": {
						"POSITION": "accessor_position_m1-PolyPaper20_-19042",
						"NORMAL": "accessor_normal_m1-PolyPaper20_-19042",
						"COLOR": "accessor_color_m1-PolyPaper20_-19042"
					},
					"indices": "accessor_indices_0_m1-PolyPaper20_-19042",
					"material": "material_mat20",
					"mode": 4
				}
			]
		}
	},
	"shaders": {
		"vertex_mat24": {
			"type": 35633,
			"uri": "https://vr.google.com/shaders/w/glassVS.glsl"
		},
		"fragment_mat24": {
			"type": 35632,
			"uri": "https://vr.google.com/shaders/w/glassFS.glsl"
		},
		"vertex_mat20": {
			"type": 35633,
			"uri": "https://vr.google.com/shaders/w/vs.glsl"
		},
		"fragment_mat20": {
			"type": 35632,
			"uri": "https://vr.google.com/shaders/w/fs.glsl"
		}
	},
	"programs": {
		"program_mat24": {
			"attributes": [
				"a_position",
				"a_normal",
				"a_color"				
			],
			"vertexShader": "vertex_mat24",
			"fragmentShader": "fragment_mat24"
		},
		"program_mat20": {
			"attributes": [
				"a_position",
				"a_normal",
				"a_color"				
			],
			"vertexShader": "vertex_mat20",
			"fragmentShader": "fragment_mat20"
		}
	},
	"techniques": {
		"technique_mat24": {
			"program": "program_mat24",
			"extras": {"gvrss" : "https://vr.google.com/shaders/w/gvrss/glass.json"},
			"parameters": {
				"position": {
					"type": 35665,
					"semantic": "POSITION"
				},
				"normal": {
					"type": 35665,
					"semantic": "NORMAL"
				},
				"color": {
					"type": 35666,
					"semantic": "COLOR"
				},
				"modelViewMatrix": {
					"type": 35676,
					"semantic": "MODELVIEW"
				},
				"projectionMatrix": {
					"type": 35676,
					"semantic": "PROJECTION"
				},
				"normalMatrix": {
					"type": 35675,
					"semantic": "MODELVIEWINVERSETRANSPOSE"
				},
				"color": {
					"type": 35666
				},
				"roughness": {
					"type": 5126
				},
				"metallic": {
					"type": 5126
				},
				"light0Pos": {
					"type": 35666
				},
				"light0Color": {
					"type": 35666
				},
				"light1Pos": {
					"type": 35666
				},
				"light1Color": {
					"type": 35666
				}				
			},
			"attributes": {
				"a_position": "position",
				"a_normal": "normal",
				"a_color": "color"				
			},
			"uniforms": {
				"u_modelViewMatrix": "modelViewMatrix",
				"u_projectionMatrix": "projectionMatrix",
				"u_normalMatrix": "normalMatrix",
				"u_color": "color",
				"u_roughness": "roughness",
				"u_metallic": "metallic",
				"u_light0Pos": "light0Pos",
				"u_light0Color": "light0Color",
				"u_light1Pos": "light1Pos",
				"u_light1Color": "light1Color"				
			},
			"states": {
				"enable": [
					2929,
					3042
				],
				"functions": {
					"blendFuncSeparate": [775, 774, 773, 772],
					"depthMask": [true]
				}
			}
		},
		"technique_mat20": {
			"program": "program_mat20",
			"extras": {"gvrss" : "https://vr.google.com/shaders/w/gvrss/paper.json"},
			"parameters": {
				"position": {
					"type": 35665,
					"semantic": "POSITION"
				},
				"normal": {
					"type": 35665,
					"semantic": "NORMAL"
				},
				"color": {
					"type": 35666,
					"semantic": "COLOR"
				},
				"modelViewMatrix": {
					"type": 35676,
					"semantic": "MODELVIEW"
				},
				"projectionMatrix": {
					"type": 35676,
					"semantic": "PROJECTION"
				},
				"normalMatrix": {
					"type": 35675,
					"semantic": "MODELVIEWINVERSETRANSPOSE"
				},
				"color": {
					"type": 35666
				},
				"roughness": {
					"type": 5126
				},
				"metallic": {
					"type": 5126
				},
				"light0Pos": {
					"type": 35666
				},
				"light0Color": {
					"type": 35666
				},
				"light1Pos": {
					"type": 35666
				},
				"light1Color": {
					"type": 35666
				}				
			},
			"attributes": {
				"a_position": "position",
				"a_normal": "normal",
				"a_color": "color"				
			},
			"uniforms": {
				"u_modelViewMatrix": "modelViewMatrix",
				"u_projectionMatrix": "projectionMatrix",
				"u_normalMatrix": "normalMatrix",
				"u_color": "color",
				"u_roughness": "roughness",
				"u_metallic": "metallic",
				"u_light0Pos": "light0Pos",
				"u_light0Color": "light0Color",
				"u_light1Pos": "light1Pos",
				"u_light1Color": "light1Color"				
			},
			"states": {
				"enable": [
					2929,
					2884
				],
				"functions": {
					"cullFace": [1029]
				}
			}
		}
	},
	"materials": {
		"material_mat24": {
			"technique": "technique_mat24",
			"values": {
				"color": [0.8392157, 0.8392157, 0.8392157, 0.2509804],
				"roughness": 0,
				"metallic": 0,
				"light0Pos": [-0.02, 4.11, -0.54, 0],
				"light0Color": [1.28, 1.232075, 1.101177, 0],
				"light1Pos": [0.02, -4.11, 0.54, 0],
				"light1Color": [0.2941177, 0.2953672, 0.32, 0]				
			},
			"name": "material_mat24"
		},
		"material_mat20": {
			"technique": "technique_mat20",
			"values": {
				"color": [0.4745098, 0.3333333, 0.282353, 1],
				"roughness": 1,
				"metallic": 0,
				"light0Pos": [-0.02, 4.11, -0.54, 0],
				"light0Color": [1.28, 1.232075, 1.101177, 0],
				"light1Pos": [0.02, -4.11, 0.54, 0],
				"light1Color": [0.2941177, 0.2953672, 0.32, 0]				
			},
			"name": "material_mat20"
		}
	},
	"nodes": {
		"node_MeshObject-567681024-PolyGlass24": {
			"name": "node_MeshObject-567681024-PolyGlass24",
			"meshes": [
				"mesh_m0-PolyGlass24_-19036"
			],
			"matrix": [1, 0, 0, 0, 0, 1, 0, 0, 0, 0, 1, 0, 0, 0, 0, 1]
		},
		"node_MeshObject4398080-PolyPaper20": {
			"name": "node_MeshObject4398080-PolyPaper20",
			"meshes": [
				"mesh_m1-PolyPaper20_-19042"
			],
			"matrix": [1, 0, 0, 0, 0, 1, 0, 0, 0, 0, 1, 0, 0, 0, 0, 1]
		}
	},
	"scene": "defaultScene",
	"scenes": {
		"defaultScene": {
			"nodes": [
				"node_MeshObject-567681024-PolyGlass24",
				"node_MeshObject4398080-PolyPaper20"
			],
			"extras": {

			}
		}
	}
}