{
	"asset": {
		"generator": "Tilt Brush 16.1.e4baa65",
		"version": "1.1",
		"copyright": "Unknown."
	},
	"buffers": {
		"sketch": {
			"byteLength": 1302288,
			"type": "arraybuffer",
			"uri": "sketch.bin"
		}
	},
	"accessors": {
		"accessor_position_Wire_4391385a-cf83-4396-9e33-31e4e4930b27_0_0": {
			"bufferView": "vec3BufferView",
			"byteOffset": 0,
			"byteStride": 12,
			"componentType": 5126,
			"count": 4724,
			"max": [ 0.9668449, 1.160982, -0.3374199 ],
			"min": [ 0.7194768, 0.9144355, -0.5976951 ],
			"type": "VEC3"
		 },
		"accessor_normal_Wire_4391385a-cf83-4396-9e33-31e4e4930b27_0_0": {
			"bufferView": "vec3BufferView",
			"byteOffset": 56688,
			"byteStride": 12,
			"componentType": 5126,
			"count": 4724,
			"max": [ 0.9999515, 0.9991944, 0.9996167 ],
			"min": [ -0.9999515, -0.9991944, -0.9996167 ],
			"type": "VEC3"
		 },
		"accessor_color_Wire_4391385a-cf83-4396-9e33-31e4e4930b27_0_0": {
			"bufferView": "vec4BufferView",
			"byteOffset": 0,
			"byteStride": 16,
			"componentType": 5126,
			"count": 4724,
			"max": [ 0.4039216, 0.1490196, 0.01568628, 1 ],
			"min": [ 0.4039216, 0.1490196, 0.01568628, 1 ],
			"type": "VEC4"
		 },
		"accessor_tangent_Wire_4391385a-cf83-4396-9e33-31e4e4930b27_0_0": {
			"bufferView": "vec4BufferView",
			"byteOffset": 75584,
			"byteStride": 16,
			"componentType": 5126,
			"count": 4724,
			"max": [ 0.9985946, 0.9994695, 0.9909136, 1 ],
			"min": [ -0.9998857, -0.9994799, -0.9917563, 1 ],
			"type": "VEC4"
		 },
		"accessor_uv0_Wire_4391385a-cf83-4396-9e33-31e4e4930b27_0_0": {
			"bufferView": "vec2BufferView",
			"byteOffset": 0,
			"byteStride": 8,
			"componentType": 5126,
			"count": 4724,
			"max": [ 3.998213, 1 ],
			"min": [ 0.0160937, 0 ],
			"type": "VEC2"
		 },
		"accessor_indices_0_Wire_4391385a-cf83-4396-9e33-31e4e4930b27_0_0": {
			"bufferView": "ushortBufferView",
			"byteOffset": 0,
			"byteStride": 0,
			"componentType": 5123,
			"count": 24000,
			"max": [ 4723 ],
			"min": [ 0 ],
			"type": "SCALAR"
		 },
		"accessor_position_Comet_1caa6d7d-f015-3f54-3a4b-8b5354d39f81_0_0": {
			"bufferView": "vec3BufferView",
			"byteOffset": 113376,
			"byteStride": 12,
			"componentType": 5126,
			"count": 12164,
			"max": [ 1.094584, 1.311307, -0.3475469 ],
			"min": [ 0.7945067, 0.9463336, -0.7555521 ],
			"type": "VEC3"
		 },
		"accessor_normal_Comet_1caa6d7d-f015-3f54-3a4b-8b5354d39f81_0_0": {
			"bufferView": "vec3BufferView",
			"byteOffset": 259344,
			"byteStride": 12,
			"componentType": 5126,
			"count": 12164,
			"max": [ 0.9997069, 0.9999363, 0.999375 ],
			"min": [ -0.999707, -0.9999363, -0.999375 ],
			"type": "VEC3"
		 },
		"accessor_color_Comet_1caa6d7d-f015-3f54-3a4b-8b5354d39f81_0_0": {
			"bufferView": "vec4BufferView",
			"byteOffset": 151168,
			"byteStride": 16,
			"componentType": 5126,
			"count": 12164,
			"max": [ 0.9803922, 0.8862745, 0.8862745, 1 ],
			"min": [ 0.3411765, 0.05882353, 0, 1 ],
			"type": "VEC4"
		 },
		"accessor_tangent_Comet_1caa6d7d-f015-3f54-3a4b-8b5354d39f81_0_0": {
			"bufferView": "vec4BufferView",
			"byteOffset": 345792,
			"byteStride": 16,
			"componentType": 5126,
			"count": 12164,
			"max": [ 0.9937495, 0.9994537, 0.997646, 1 ],
			"min": [ -0.9937495, -0.9969378, -0.997646, 1 ],
			"type": "VEC4"
		 },
		"accessor_uv0_Comet_1caa6d7d-f015-3f54-3a4b-8b5354d39f81_0_0": {
			"bufferView": "vec3BufferView",
			"byteOffset": 405312,
			"byteStride": 12,
			"componentType": 5126,
			"count": 12164,
			"max": [ 0.9969231, 1, 0.0213749 ],
			"min": [ 0, 0, 0 ],
			"type": "VEC3"
		 },
		"accessor_indices_0_Comet_1caa6d7d-f015-3f54-3a4b-8b5354d39f81_0_0": {
			"bufferView": "ushortBufferView",
			"byteOffset": 48000,
			"byteStride": 0,
			"componentType": 5123,
			"count": 62400,
			"max": [ 12163 ],
			"min": [ 0 ],
			"type": "SCALAR"
		 }
	},
	"bufferViews": {
		"ushortBufferView": {
			"buffer": "sketch",
			"byteLength": 172800,
			"byteOffset": 0,
			"target": 34963
		},
		"vec2BufferView": {
			"buffer": "sketch",
			"byteLength": 37792,
			"byteOffset": 172800,
			"target": 34962
		},
		"vec3BufferView": {
			"buffer": "sketch",
			"byteLength": 551280,
			"byteOffset": 210592,
			"target": 34962
		},
		"vec4BufferView": {
			"buffer": "sketch",
			"byteLength": 540416,
			"byteOffset": 761872,
			"target": 34962
		}
	},
	"meshes": {
		"mesh_Wire_4391385a-cf83-4396-9e33-31e4e4930b27_0_0": {
			"name": "mesh_Wire_4391385a-cf83-4396-9e33-31e4e4930b27_0_0",
			"primitives": [
				{
					"attributes": {
						"POSITION": "accessor_position_Wire_4391385a-cf83-4396-9e33-31e4e4930b27_0_0",
						"NORMAL": "accessor_normal_Wire_4391385a-cf83-4396-9e33-31e4e4930b27_0_0",
						"COLOR": "accessor_color_Wire_4391385a-cf83-4396-9e33-31e4e4930b27_0_0",
						"TANGENT": "accessor_tangent_Wire_4391385a-cf83-4396-9e33-31e4e4930b27_0_0",
						"TEXCOORD_0": "accessor_uv0_Wire_4391385a-cf83-4396-9e33-31e4e4930b27_0_0"
					},
					"indices": "accessor_indices_0_Wire_4391385a-cf83-4396-9e33-31e4e4930b27_0_0",
					"material": "material_4391385a-cf83-4396-9e33-31e4e4930b27",
					"mode": 4
				}
			]
		},
		"mesh_Comet_1caa6d7d-f015-3f54-3a4b-8b5354d39f81_0_0": {
			"name": "mesh_Comet_1caa6d7d-f015-3f54-3a4b-8b5354d39f81_0_0",
			"primitives": [
				{
					"attributes": {
						"POSITION": "accessor_position_Comet_1caa6d7d-f015-3f54-3a4b-8b5354d39f81_0_0",
						"NORMAL": "accessor_normal_Comet_1caa6d7d-f015-3f54-3a4b-8b5354d39f81_0_0",
						"COLOR": "accessor_color_Comet_1caa6d7d-f015-3f54-3a4b-8b5354d39f81_0_0",
						"TANGENT": "accessor_tangent_Comet_1caa6d7d-f015-3f54-3a4b-8b5354d39f81_0_0",
						"TEXCOORD_0": "accessor_uv0_Comet_1caa6d7d-f015-3f54-3a4b-8b5354d39f81_0_0"
					},
					"indices": "accessor_indices_0_Comet_1caa6d7d-f015-3f54-3a4b-8b5354d39f81_0_0",
					"material": "material_1caa6d7d-f015-3f54-3a4b-8b5354d39f81",
					"mode": 4
				}
			]
		}
	},
	"shaders": {
		"vertex_4391385a-cf83-4396-9e33-31e4e4930b27": {
			"type": 35633,
			"uri": "https://www.tiltbrush.com/shaders/brushes/Wire-4391385a-cf83-4396-9e33-31e4e4930b27/Wire-4391385a-cf83-4396-9e33-31e4e4930b27-v10.0-vertex.glsl"
		},
		"fragment_4391385a-cf83-4396-9e33-31e4e4930b27": {
			"type": 35632,
			"uri": "https://www.tiltbrush.com/shaders/brushes/Wire-4391385a-cf83-4396-9e33-31e4e4930b27/Wire-4391385a-cf83-4396-9e33-31e4e4930b27-v10.0-fragment.glsl"
		},
		"vertex_1caa6d7d-f015-3f54-3a4b-8b5354d39f81": {
			"type": 35633,
			"uri": "https://www.tiltbrush.com/shaders/brushes/Comet-1caa6d7d-f015-3f54-3a4b-8b5354d39f81/Comet-1caa6d7d-f015-3f54-3a4b-8b5354d39f81-v10.0-vertex.glsl"
		},
		"fragment_1caa6d7d-f015-3f54-3a4b-8b5354d39f81": {
			"type": 35632,
			"uri": "https://www.tiltbrush.com/shaders/brushes/Comet-1caa6d7d-f015-3f54-3a4b-8b5354d39f81/Comet-1caa6d7d-f015-3f54-3a4b-8b5354d39f81-v10.0-fragment.glsl"
		}
	},
	"programs": {
		"program_4391385a-cf83-4396-9e33-31e4e4930b27": {
			"attributes": [
				"a_position",
				"a_normal",
				"a_color",
				"a_tangent",
				"a_texcoord0"				
			],
			"vertexShader": "vertex_4391385a-cf83-4396-9e33-31e4e4930b27",
			"fragmentShader": "fragment_4391385a-cf83-4396-9e33-31e4e4930b27"
		},
		"program_1caa6d7d-f015-3f54-3a4b-8b5354d39f81": {
			"attributes": [
				"a_position",
				"a_normal",
				"a_color",
				"a_tangent",
				"a_texcoord0"				
			],
			"vertexShader": "vertex_1caa6d7d-f015-3f54-3a4b-8b5354d39f81",
			"fragmentShader": "fragment_1caa6d7d-f015-3f54-3a4b-8b5354d39f81"
		}
	},
	"techniques": {
		"technique_4391385a-cf83-4396-9e33-31e4e4930b27": {
			"program": "program_4391385a-cf83-4396-9e33-31e4e4930b27",
			"parameters": {
				"position": {
					"type": 35665,
					"semantic": "POSITION"
				},
				"normal": {
					"type": 35665,
					"semantic": "NORMAL"
				},
				"color": {
					"type": 35666,
					"semantic": "COLOR"
				},
				"tangent": {
					"type": 35666,
					"semantic": "TANGENT"
				},
				"texcoord0": {
					"type": 35664,
					"semantic": "TEXCOORD_0"
				},
				"modelViewMatrix": {
					"type": 35676,
					"semantic": "MODELVIEW"
				},
				"projectionMatrix": {
					"type": 35676,
					"semantic": "PROJECTION"
				},
				"normalMatrix": {
					"type": 35675,
					"semantic": "MODELVIEWINVERSETRANSPOSE"
				},
				"SceneLight_0_matrix": {
					"type": 35676,
					"semantic": "MODELVIEW",
					"node": "node_SceneLight_0_-1046"
				},
				"SceneLight_0_color": {
					"type": 35666,
					"node": "node_SceneLight_0_-1046"
				},
				"SceneLight_1_matrix": {
					"type": 35676,
					"semantic": "MODELVIEW",
					"node": "node_SceneLight_1_-1052"
				},
				"SceneLight_1_color": {
					"type": 35666,
					"node": "node_SceneLight_1_-1052"
				},
				"ambient_light_color": {
					"type": 35666
				},
				"Cutoff": {
					"type": 5126
				}				
			},
			"attributes": {
				"a_position": "position",
				"a_normal": "normal",
				"a_color": "color",
				"a_tangent": "tangent",
				"a_texcoord0": "texcoord0"				
			},
			"uniforms": {
				"u_modelViewMatrix": "modelViewMatrix",
				"u_projectionMatrix": "projectionMatrix",
				"u_normalMatrix": "normalMatrix",
				"u_SceneLight_0_matrix": "SceneLight_0_matrix",
				"u_SceneLight_0_color": "SceneLight_0_color",
				"u_SceneLight_1_matrix": "SceneLight_1_matrix",
				"u_SceneLight_1_color": "SceneLight_1_color",
				"u_ambient_light_color": "ambient_light_color",
				"u_Cutoff": "Cutoff"				
			},
			"states": {
				"enable": [
					2929
				],
				"functions": {
					"depthMask": [true]
				}
			}
		},
		"technique_1caa6d7d-f015-3f54-3a4b-8b5354d39f81": {
			"program": "program_1caa6d7d-f015-3f54-3a4b-8b5354d39f81",
			"parameters": {
				"position": {
					"type": 35665,
					"semantic": "POSITION"
				},
				"normal": {
					"type": 35665,
					"semantic": "NORMAL"
				},
				"color": {
					"type": 35666,
					"semantic": "COLOR"
				},
				"tangent": {
					"type": 35666,
					"semantic": "TANGENT"
				},
				"texcoord0": {
					"type": 35665,
					"semantic": "TEXCOORD_0"
				},
				"modelViewMatrix": {
					"type": 35676,
					"semantic": "MODELVIEW"
				},
				"projectionMatrix": {
					"type": 35676,
					"semantic": "PROJECTION"
				},
				"normalMatrix": {
					"type": 35675,
					"semantic": "MODELVIEWINVERSETRANSPOSE"
				},
				"SceneLight_0_matrix": {
					"type": 35676,
					"semantic": "MODELVIEW",
					"node": "node_SceneLight_0_-1046"
				},
				"SceneLight_0_color": {
					"type": 35666,
					"node": "node_SceneLight_0_-1046"
				},
				"SceneLight_1_matrix": {
					"type": 35676,
					"semantic": "MODELVIEW",
					"node": "node_SceneLight_1_-1052"
				},
				"SceneLight_1_color": {
					"type": 35666,
					"node": "node_SceneLight_1_-1052"
				},
				"ambient_light_color": {
					"type": 35666
				},
				"Speed": {
					"type": 5126
				},
				"EmissionGain": {
					"type": 5126
				},
				"MainTex_TexelSize": {
					"type": 35666
				},
				"AlphaMask_TexelSize": {
					"type": 35666
				},
				"MainTex": {
					"type": 35678
				},
				"AlphaMask": {
					"type": 35678
				}				
			},
			"attributes": {
				"a_position": "position",
				"a_normal": "normal",
				"a_color": "color",
				"a_tangent": "tangent",
				"a_texcoord0": "texcoord0"				
			},
			"uniforms": {
				"u_modelViewMatrix": "modelViewMatrix",
				"u_projectionMatrix": "projectionMatrix",
				"u_normalMatrix": "normalMatrix",
				"u_SceneLight_0_matrix": "SceneLight_0_matrix",
				"u_SceneLight_0_color": "SceneLight_0_color",
				"u_SceneLight_1_matrix": "SceneLight_1_matrix",
				"u_SceneLight_1_color": "SceneLight_1_color",
				"u_ambient_light_color": "ambient_light_color",
				"u_Speed": "Speed",
				"u_EmissionGain": "EmissionGain",
				"u_MainTex_TexelSize": "MainTex_TexelSize",
				"u_AlphaMask_TexelSize": "AlphaMask_TexelSize",
				"u_MainTex": "MainTex",
				"u_AlphaMask": "AlphaMask"				
			},
			"states": {
				"enable": [
					2929,
					3042
				],
				"functions": {
					"blendFuncSeparate": [1, 1, 1, 1],
					"depthMask": [false]
				}
			}
		}
	},
	"samplers": {
		"sampler_LINEAR_LINEAR_REPEAT": {
			"magFilter": 9729,
			"minFilter": 9987,
			"wrapS": 10497,
			"wrapT": 10497
		}
	},
	"textures": {
		"texture_1caa6d7d-f015-3f54-3a4b-8b5354d39f81_MainTex": {
			"format": 6408,
			"internalFormat": 6408,
			"sampler": "sampler_LINEAR_LINEAR_REPEAT",
			"source": "image_1caa6d7d-f015-3f54-3a4b-8b5354d39f81_MainTex",
			"target": 3553,
			"type": 5121
		},
		"texture_1caa6d7d-f015-3f54-3a4b-8b5354d39f81_AlphaMask": {
			"format": 6408,
			"internalFormat": 6408,
			"sampler": "sampler_LINEAR_LINEAR_REPEAT",
			"source": "image_1caa6d7d-f015-3f54-3a4b-8b5354d39f81_AlphaMask",
			"target": 3553,
			"type": 5121
		}
	},
	"images": {
		"image_1caa6d7d-f015-3f54-3a4b-8b5354d39f81_MainTex": {
			"uri": "https://www.tiltbrush.com/shaders/brushes/Comet-1caa6d7d-f015-3f54-3a4b-8b5354d39f81/Comet-1caa6d7d-f015-3f54-3a4b-8b5354d39f81-v10.0-MainTex.png"
		},
		"image_1caa6d7d-f015-3f54-3a4b-8b5354d39f81_AlphaMask": {
			"uri": "https://www.tiltbrush.com/shaders/brushes/Comet-1caa6d7d-f015-3f54-3a4b-8b5354d39f81/Comet-1caa6d7d-f015-3f54-3a4b-8b5354d39f81-v10.0-AlphaMask.png"
		}
	},
	"materials": {
		"material_4391385a-cf83-4396-9e33-31e4e4930b27": {
			"technique": "technique_4391385a-cf83-4396-9e33-31e4e4930b27",
			"values": {
				"SceneLight_0_color": [1.16, 0.8666667, 0.8666667, 1],
				"SceneLight_1_color": [0, 0, 0, 1],
				"ambient_light_color": [0.227451, 0.2078431, 0.3607843, 1],
				"Cutoff": 0.067				
			},
			"name": "material_4391385a-cf83-4396-9e33-31e4e4930b27"
		},
		"material_1caa6d7d-f015-3f54-3a4b-8b5354d39f81": {
			"technique": "technique_1caa6d7d-f015-3f54-3a4b-8b5354d39f81",
			"values": {
				"SceneLight_0_color": [1.16, 0.8666667, 0.8666667, 1],
				"SceneLight_1_color": [0, 0, 0, 1],
				"ambient_light_color": [0.227451, 0.2078431, 0.3607843, 1],
				"Speed": 1,
				"EmissionGain": 0.5,
				"MainTex_TexelSize": [0.00390625, 0.00390625, 256, 256],
				"AlphaMask_TexelSize": [0.015625, 1, 64, 1],
				"MainTex": "texture_1caa6d7d-f015-3f54-3a4b-8b5354d39f81_MainTex",
				"AlphaMask": "texture_1caa6d7d-f015-3f54-3a4b-8b5354d39f81_AlphaMask"				
			},
			"name": "material_1caa6d7d-f015-3f54-3a4b-8b5354d39f81"
		}
	},
	"nodes": {
		"node_Wire_4391385a-cf83-4396-9e33-31e4e4930b27_0_0": {
			"name": "node_Wire_4391385a-cf83-4396-9e33-31e4e4930b27_0_0",
			"meshes": [
				"mesh_Wire_4391385a-cf83-4396-9e33-31e4e4930b27_0_0"
			],
			"matrix": [1, 0, 0, 0, 0, 1, 0, 0, 0, 0, 1, 0, 0, 0, 0, 1]
		},
		"node_SceneLight_0_-1046": {
			"name": "node_SceneLight_0_-1046",
			"light": "SceneLight_0",
			"matrix": [0.7386057, 0.663414, 0.1197638, 0, -0.3802362, 0.5566703, -0.7386059, 0, -0.5566704, 0.5, 0.6634139, 0, 0.787637, -0.0825571, 0.440714, 1]
		},
		"node_SceneLight_1_-1052": {
			"name": "node_SceneLight_1_-1052",
			"light": "SceneLight_1",
			"matrix": [1, 0, 0, 0, 0, 1, 0, 0, 0, 0, 1, 0, 0.787637, -0.09943014, 0.3450223, 1]
		},
		"node_Comet_1caa6d7d-f015-3f54-3a4b-8b5354d39f81_0_0": {
			"name": "node_Comet_1caa6d7d-f015-3f54-3a4b-8b5354d39f81_0_0",
			"meshes": [
				"mesh_Comet_1caa6d7d-f015-3f54-3a4b-8b5354d39f81_0_0"
			],
			"matrix": [1, 0, 0, 0, 0, 1, 0, 0, 0, 0, 1, 0, 0, 0, 0, 1]
		}
	},
	"scene": "defaultScene",
	"scenes": {
		"defaultScene": {
			"nodes": [
				"node_Wire_4391385a-cf83-4396-9e33-31e4e4930b27_0_0",
				"node_SceneLight_0_-1046",
				"node_SceneLight_1_-1052",
				"node_Comet_1caa6d7d-f015-3f54-3a4b-8b5354d39f81_0_0"
			],
			"extras": {
				"TB_EnvironmentGuid": "96cf6f36-47b6-44f4-bdbf-63be2ddac909",
				"TB_Environment": "Space",
				"TB_UseGradient": "false",
				"TB_SkyColorA": "0, 0, 0",
				"TB_SkyColorB": "0.1215686, 0.03529412, 0.172549",
				"TB_SkyGradientDirection": "0, 1, 0",
				"TB_FogColor": "0, 0, 0",
				"TB_FogDensity": "0",
				"TB_SkyColorHorizon": "0, 0, 0",
				"TB_SkyColorZenith": "0.1215686, 0.03529412, 0.172549"
			}
		}
	}
}